<svg xmlns="http://www.w3.org/2000/svg" height="100" width="140" viewBox="0 0 70 13"><defs><clipPath clipPathUnits="userSpaceOnUse" id="logoRicoh"></clipPath></defs><g clip-path="url(#a)" transform="matrix(1.25 0 0 -1.25 -639.1644 1017.2802)"><path d="M532.9727 808.8047c0-1.956 1.448-3.399 3.869-3.399 1.021 0 1.982.16 2.979.625l.907-1.235c-1.255-.661-2.459-1.01-4.31-1.01-3.862 0-6.7 1.86-6.7 5.018v.001c0 3.157 2.838 5.015 6.7 5.015 1.851 0 2.917-.269 4.219-.828l-.928-1.421c-.988.524-1.846.632-2.867.632-2.421 0-3.869-1.441-3.869-3.397m14.7329-3.4585c-2.056 0-3.191 1.545-3.191 3.458 0 1.913 1.135 3.459 3.191 3.459s3.193-1.546 3.193-3.459-1.137-3.458-3.193-3.458m0 8.477c-3.738 0-6.434-1.862-6.434-5.019 0-3.159 2.696-5.019 6.434-5.019 3.739 0 6.436 1.86 6.436 5.019 0 3.157-2.697 5.019-6.436 5.019m16.1538-5.7461v-4.038h3.09v9.531h-3.09v-3.636h-4.722v3.636h-3.083v-9.531h3.083v4.038zm-36.0044 5.4929h-3.253v-9.531h3.253zm-12.5845-4.363v-.912c1.529-1.182 3.087-2.757 4.232-4.256h3.643c-1.268 1.488-3.212 3.257-4.644 4.147 1.681.069 3.554.75 3.554 2.68 0 2.473-2.645 2.928-5.319 2.928-2.185 0-4.197-.101-5.405-.2v-9.555h3.038v8.117c.56.059 1.165.127 2.38.127 1.564 0 2.357-.516 2.357-1.417 0-.771-.328-1.693-3.836-1.659" fill="#737373"/></g></svg>